<?xml version="1.0" encoding="utf-8"?>
<svg viewBox="367.084 444.76 188.59 188.58" xmlns="http://www.w3.org/2000/svg">
  <defs>
    <style type="text/css">
	.st0{fill:#FFFFFF;}
</style>
  </defs>
  <path class="st0" d="M 461.384 444.76 C 409.304 444.76 367.084 486.97 367.084 539.05 C 367.084 591.13 409.304 633.34 461.384 633.34 C 513.454 633.34 555.674 591.13 555.674 539.05 C 555.674 486.97 513.454 444.76 461.384 444.76 Z M 489.944 517.82 L 489.944 539.25 L 471.884 539.25 L 471.814 601.32 L 445.614 601.32 L 445.954 539.96 L 432.814 540.03 L 432.814 517.89 L 445.744 517.82 C 445.744 517.82 445.454 498.67 445.744 494.96 C 446.024 491.25 449.174 474.25 489.884 477.1 C 490.024 500.25 489.884 500.96 489.884 500.96 L 473.454 500.96 C 473.454 500.96 472.174 500.82 472.024 502.53 C 471.884 504.25 471.814 517.82 471.814 517.82 L 489.944 517.82 Z"/>
</svg>