<?xml version="1.0" encoding="utf-8"?>
<svg viewBox="0 0 500 500" xmlns="http://www.w3.org/2000/svg">
  <path d="M 0 0 L 500 0 L 500 500 L 0 500 Z M 328.477 298.962 L 311.967 298.962 L 306.115 293.1 C 326.596 268.347 338.927 236.212 338.927 201.255 C 338.927 123.306 278.11 60.123 203.08 60.123 C 128.051 60.123 67.234 123.306 67.234 201.255 C 67.234 279.204 128.051 342.387 203.08 342.387 C 236.729 342.387 267.66 329.577 291.485 308.299 L 297.128 314.378 L 297.128 331.531 L 401.626 439.877 L 432.766 407.525 Z M 203.08 298.962 C 151.041 298.962 109.033 255.32 109.033 201.255 C 109.033 147.19 151.041 103.548 203.08 103.548 C 255.12 103.548 297.128 147.19 297.128 201.255 C 297.128 255.32 255.12 298.962 203.08 298.962 Z" style="fill: rgb(255, 255, 255);"/>
</svg>