<?xml version="1.0" encoding="utf-8"?>
<svg viewBox="36.367 45.013 383 383" xmlns="http://www.w3.org/2000/svg">
  <defs>
    <style type="text/css">
	.st0{fill:#FFFFFF;}
</style>
  </defs>
  <path class="st0" d="M 227.867 45.013 C 122.107 45.013 36.367 130.753 36.367 236.513 C 36.367 342.283 122.107 428.013 227.867 428.013 C 333.627 428.013 419.367 342.283 419.367 236.513 C 419.367 130.753 333.627 45.013 227.867 45.013 Z M 322.937 188.443 C 321.437 212.663 321.227 261.303 283.937 295.373 C 249.867 331.163 169.297 351.943 108.007 311.013 C 110.157 310.803 151.937 314.013 179.367 291.093 C 171.437 289.803 144.007 286.803 134.367 256.373 C 147.007 257.013 154.507 256.373 154.507 256.373 C 154.507 256.373 116.367 246.943 117.007 207.093 C 125.797 210.733 132.657 213.303 137.577 212.663 C 132.227 209.233 103.507 183.303 124.297 148.593 C 133.507 156.943 160.507 191.733 224.797 198.873 C 224.797 198.873 216.437 159.943 256.937 142.803 C 283.937 132.733 304.297 148.373 309.657 155.013 C 320.157 152.233 332.577 148.373 340.727 143.233 C 341.157 145.593 335.157 161.293 322.727 169.193 C 330.437 168.093 337.727 166.373 346.077 162.513 C 346.297 164.873 340.937 174.943 322.937 188.443 Z"/>
</svg>